<svg width="27" height="20" viewBox="0 0 27 20" fill="none" xmlns="http://www.w3.org/2000/svg">
<path d="M13.3422 12.8546C17.8619 12.8546 21.721 13.5181 21.721 16.173C21.721 18.8268 17.8866 19.5144 13.3422 19.5144C8.82259 19.5144 4.96345 18.851 4.96345 16.1972C4.96345 13.5423 8.79782 12.8546 13.3422 12.8546ZM20.5686 11.256C22.2964 11.2263 24.1541 11.446 24.8405 11.602C26.2948 11.8667 27.2513 12.4071 27.6476 13.1925C27.9825 13.8373 27.9825 14.5853 27.6476 15.229C27.0413 16.4472 25.087 16.8382 24.3274 16.9393C24.1706 16.9612 24.0444 16.8349 24.0609 16.6888C24.4489 13.3134 21.3623 11.7129 20.5638 11.345C20.5296 11.3285 20.5226 11.3032 20.5261 11.2879C20.5285 11.2769 20.5426 11.2593 20.5686 11.256ZM5.92568 11.2537L6.25105 11.2564C6.277 11.2597 6.28997 11.2773 6.29233 11.2872C6.29587 11.3037 6.28879 11.3278 6.25577 11.3454C5.45611 11.7134 2.3695 13.3138 2.75754 16.6882C2.77405 16.8353 2.64903 16.9606 2.49216 16.9397C1.7326 16.8386 -0.221738 16.4476 -0.827972 15.2294C-1.16411 14.5847 -1.16411 13.8377 -0.827972 13.193C-0.431679 12.4076 0.523671 11.8672 1.97793 11.6013C2.66554 11.4465 4.52199 11.2268 6.25105 11.2564L5.92568 11.2537ZM13.3422 0C16.4194 0 18.8868 2.29571 18.8868 5.1626C18.8868 8.02839 16.4194 10.3263 13.3422 10.3263C10.2651 10.3263 7.79766 8.02839 7.79766 5.1626C7.79766 2.29571 10.2651 0 13.3422 0ZM20.8693 0.860946C23.8415 0.860946 26.1756 3.46531 25.3807 6.36625C24.844 8.31925 22.9015 9.61649 20.7372 9.56377C20.5202 9.55827 20.3067 9.5396 20.1003 9.50665C19.9505 9.48248 19.875 9.32541 19.96 9.20897C20.7856 8.0776 21.2562 6.71665 21.2562 5.25574C21.2562 3.73113 20.7419 2.30977 19.8491 1.14434C19.8208 1.10809 19.7996 1.05207 19.8279 1.01033C19.8515 0.97628 19.8951 0.958705 19.9364 0.949918C20.2371 0.8928 20.5462 0.860946 20.8693 0.860946ZM5.94852 0.860836C6.27169 0.860836 6.58071 0.89269 6.88264 0.949808C6.92275 0.958596 6.96756 0.977269 6.99115 1.01022C7.01828 1.05196 6.99823 1.10798 6.96992 1.14423C6.07708 2.30966 5.56285 3.73102 5.56285 5.25563C5.56285 6.71654 6.03344 8.07749 6.85906 9.20887C6.94398 9.3253 6.86849 9.48237 6.7187 9.50654C6.51112 9.54059 6.29882 9.55816 6.0818 9.56366C3.91752 9.61638 1.97498 8.31914 1.43833 6.36614C0.642205 3.4652 2.97633 0.860836 5.94852 0.860836Z" fill="#B1B1B1"/>
</svg>
