<svg width="20" height="21" viewBox="0 0 20 21" fill="none" xmlns="http://www.w3.org/2000/svg">
<path d="M20 20.2716L16 16.2716H6C5.45 16.2716 4.97933 16.0759 4.588 15.6846C4.19667 15.2933 4.00067 14.8223 4 14.2716V13.2716H15C15.55 13.2716 16.021 13.0759 16.413 12.6846C16.805 12.2933 17.0007 11.8223 17 11.2716V4.27161H18C18.55 4.27161 19.021 4.46761 19.413 4.85961C19.805 5.25161 20.0007 5.72227 20 6.27161V20.2716ZM2 10.4466L3.175 9.27161H13V2.27161H2V10.4466ZM0 15.2716V2.27161C0 1.72161 0.196 1.25094 0.588 0.859607C0.98 0.468273 1.45067 0.272273 2 0.271606H13C13.55 0.271606 14.021 0.467607 14.413 0.859607C14.805 1.25161 15.0007 1.72227 15 2.27161V9.27161C15 9.82161 14.8043 10.2926 14.413 10.6846C14.0217 11.0766 13.5507 11.2723 13 11.2716H4L0 15.2716Z" fill="#B1B1B1"/>
</svg>
