<svg width="21" height="21" viewBox="0 0 21 21" fill="none" xmlns="http://www.w3.org/2000/svg">
<path d="M4.2502 0.0833303H6.42936L4.24395 6.33333H0.481445L3.31895 0.65833C3.40554 0.485524 3.5385 0.340219 3.70297 0.238671C3.86743 0.137123 4.05691 0.0833367 4.2502 0.0833303ZM0.556445 8.41666L6.83561 18.1812L4.1877 8.41666H0.556445ZM6.34603 8.41666L9.53353 20.1771C9.59002 20.3904 9.71545 20.579 9.89029 20.7135C10.0651 20.8481 10.2796 20.921 10.5002 20.921C10.7208 20.921 10.9353 20.8481 11.1101 20.7135C11.2849 20.579 11.4104 20.3904 11.4669 20.1771L14.6627 8.41666H6.34603ZM16.821 8.41666L14.1669 18.1771L20.4439 8.41666H16.821ZM20.5189 6.33333H16.7627L14.5752 0.0833303H16.7502C16.9438 0.0829497 17.1338 0.136553 17.2986 0.238123C17.4635 0.339692 17.5968 0.485207 17.6835 0.65833L20.5189 6.33333ZM14.5564 6.33333H6.45228L8.63561 0.0833303H12.3648L14.5564 6.33333Z" fill="#C89B09"/>
</svg>
