<svg width="22" height="21" viewBox="0 0 22 21" fill="none" xmlns="http://www.w3.org/2000/svg">
<path fill-rule="evenodd" clip-rule="evenodd" d="M19 2.27148H3C2.73478 2.27148 2.48043 2.37684 2.29289 2.56438C2.10536 2.75191 2 3.00627 2 3.27148V17.2715C2 17.5367 2.10536 17.7911 2.29289 17.9786C2.48043 18.1661 2.73478 18.2715 3 18.2715H19C19.2652 18.2715 19.5196 18.1661 19.7071 17.9786C19.8946 17.7911 20 17.5367 20 17.2715V3.27148C20 3.00627 19.8946 2.75191 19.7071 2.56438C19.5196 2.37684 19.2652 2.27148 19 2.27148ZM3 0.271484C2.20435 0.271484 1.44129 0.587555 0.87868 1.15016C0.31607 1.71277 0 2.47583 0 3.27148V17.2715C0 18.0671 0.31607 18.8302 0.87868 19.3928C1.44129 19.9554 2.20435 20.2715 3 20.2715H19C19.7956 20.2715 20.5587 19.9554 21.1213 19.3928C21.6839 18.8302 22 18.0671 22 17.2715V3.27148C22 2.47583 21.6839 1.71277 21.1213 1.15016C20.5587 0.587555 19.7956 0.271484 19 0.271484H3ZM5 5.27148H7V7.27148H5V5.27148ZM10 5.27148C9.73478 5.27148 9.48043 5.37684 9.29289 5.56438C9.10536 5.75191 9 6.00627 9 6.27148C9 6.5367 9.10536 6.79105 9.29289 6.97859C9.48043 7.16613 9.73478 7.27148 10 7.27148H16C16.2652 7.27148 16.5196 7.16613 16.7071 6.97859C16.8946 6.79105 17 6.5367 17 6.27148C17 6.00627 16.8946 5.75191 16.7071 5.56438C16.5196 5.37684 16.2652 5.27148 16 5.27148H10ZM7 9.27148H5V11.2715H7V9.27148ZM9 10.2715C9 10.0063 9.10536 9.75191 9.29289 9.56438C9.48043 9.37684 9.73478 9.27148 10 9.27148H16C16.2652 9.27148 16.5196 9.37684 16.7071 9.56438C16.8946 9.75191 17 10.0063 17 10.2715C17 10.5367 16.8946 10.7911 16.7071 10.9786C16.5196 11.1661 16.2652 11.2715 16 11.2715H10C9.73478 11.2715 9.48043 11.1661 9.29289 10.9786C9.10536 10.7911 9 10.5367 9 10.2715ZM7 13.2715H5V15.2715H7V13.2715ZM9 14.2715C9 14.0063 9.10536 13.7519 9.29289 13.5644C9.48043 13.3768 9.73478 13.2715 10 13.2715H16C16.2652 13.2715 16.5196 13.3768 16.7071 13.5644C16.8946 13.7519 17 14.0063 17 14.2715C17 14.5367 16.8946 14.7911 16.7071 14.9786C16.5196 15.1661 16.2652 15.2715 16 15.2715H10C9.73478 15.2715 9.48043 15.1661 9.29289 14.9786C9.10536 14.7911 9 14.5367 9 14.2715Z" fill="#B1B1B1"/>
</svg>
