<svg width="24" height="25" viewBox="0 0 24 25" fill="none" xmlns="http://www.w3.org/2000/svg">
<path d="M12.5105 0.439423C13.4329 0.439423 14.268 0.951676 14.7292 1.70786C14.9535 2.07375 15.1031 2.52502 15.0657 3.00069C15.0408 3.36658 15.1529 3.73248 15.3524 4.07398C15.9881 5.11068 17.3965 5.50097 18.4934 4.91554C19.7273 4.20814 21.2854 4.63502 21.9958 5.84247L22.831 7.28166C23.5539 8.48911 23.155 10.0381 21.9086 10.7333C20.8491 11.3553 20.4752 12.7335 21.1109 13.7824C21.3103 14.1117 21.5347 14.3922 21.8837 14.563C22.3199 14.7947 22.6565 15.1606 22.8933 15.5265C23.3545 16.2827 23.3171 17.2096 22.8683 18.0268L21.9958 19.4904C21.5347 20.2709 20.6746 20.7588 19.7897 20.7588C19.3534 20.7588 18.8673 20.6368 18.4684 20.3929C18.1444 20.1856 17.7704 20.1124 17.3716 20.1124C16.1376 20.1124 15.1031 21.1247 15.0657 22.3321C15.0657 23.7347 13.919 24.8324 12.4856 24.8324H10.7904C9.34458 24.8324 8.19786 23.7347 8.19786 22.3321C8.17293 21.1247 7.1384 20.1124 5.90443 20.1124C5.49311 20.1124 5.11918 20.1856 4.80757 20.3929C4.40871 20.6368 3.91014 20.7588 3.48636 20.7588C2.58893 20.7588 1.72889 20.2709 1.26771 19.4904L0.407674 18.0268C-0.0535057 17.234 -0.0784343 16.2827 0.382745 15.5265C0.582174 15.1606 0.956103 14.7947 1.37989 14.563C1.72889 14.3922 1.95325 14.1117 2.16514 13.7824C2.78836 12.7335 2.41443 11.3553 1.35496 10.7333C0.120995 10.0381 -0.277863 8.48911 0.432602 7.28166L1.26771 5.84247C1.99064 4.63502 3.53621 4.20814 4.78264 4.91554C5.86704 5.50097 7.2755 5.11068 7.91118 4.07398C8.11061 3.73248 8.22279 3.36658 8.19786 3.00069C8.17293 2.52502 8.31004 2.07375 8.54686 1.70786C9.00804 0.951676 9.84315 0.463816 10.753 0.439423H12.5105ZM11.6505 9.19651C9.69358 9.19651 8.11061 10.7333 8.11061 12.6481C8.11061 14.563 9.69358 16.0875 11.6505 16.0875C13.6074 16.0875 15.1529 14.563 15.1529 12.6481C15.1529 10.7333 13.6074 9.19651 11.6505 9.19651Z" fill="#B1B1B1"/>
</svg>
